<svg aria-hidden="true" style="position:absolute;width:0;height:0" xmlns="http://www.w3.org/2000/svg" overflow="hidden">

  <symbol id="email" viewBox="0 0 512 512">
    <path d="M256,0C114.68.15.15,114.68,0,256c-2.69,204.22,238.06,329.15,403.2,209.43,9.81-6.53,12.47-19.77,5.95-29.58-6.53-9.81-19.77-12.47-29.58-5.95-.32.21-.64.44-.94.67-137.56,99.69-338.09-4.37-335.96-174.57,11.71-283.01,415-282.94,426.67,0v42.67c0,23.56-19.1,42.67-42.67,42.67s-42.67-19.1-42.67-42.67v-42.67c-5.38-169.15-250.65-169.13-256,0,.68,70.89,58.7,127.81,129.59,127.13,36.3-.35,70.76-16.05,94.84-43.22,23.23,41,75.31,55.41,116.31,32.18,26.48-15,42.97-42.98,43.26-73.41v-42.67C511.85,114.68,397.32.15,256,0ZM256,341.33c-47.13,0-85.33-38.21-85.33-85.33s38.21-85.33,85.33-85.33,85.33,38.21,85.33,85.33-38.21,85.33-85.33,85.33Z"/>
  </symbol>

  <symbol id="user" viewBox="0 0 512 512">
    <path d="M256,256c70.69,0,128-57.31,128-128S326.69,0,256,0s-128,57.31-128,128c.07,70.66,57.34,127.93,128,128ZM256,42.67c47.13,0,85.33,38.21,85.33,85.33s-38.21,85.33-85.33,85.33-85.33-38.21-85.33-85.33,38.21-85.33,85.33-85.33Z"/>
    <path d="M256,298.67c-105.99.12-191.88,86.01-192,192,0,11.78,9.55,21.33,21.33,21.33s21.33-9.55,21.33-21.33c0-82.47,66.86-149.33,149.33-149.33s149.33,66.86,149.33,149.33c0,11.78,9.55,21.33,21.33,21.33s21.33-9.55,21.33-21.33c-.12-105.99-86.01-191.88-192-192h.02Z"/>
  </symbol>

  <symbol id="poll" viewBox="0 0 512 512">
    <path d="M360.84,203.57c0,14.41-11.8,26.21-26.21,26.21H98.73c-14.41,0-26.21-11.8-26.21-26.21s11.8-26.21,26.21-26.21h235.91c14.41,0,26.21,11.8,26.21,26.21Z"/>
    <path d="M282.21,98.73c0,14.41-11.8,26.21-26.21,26.21H98.73c-14.41,0-26.21-11.8-26.21-26.21s11.8-26.21,26.21-26.21h157.27c14.41,0,26.21,11.8,26.21,26.21Z"/>
    <path d="M439.48,308.43c0,14.41-11.8,26.21-26.21,26.21H98.73c-14.41,0-26.21-11.8-26.21-26.21s11.8-26.21,26.21-26.21h314.54c14.41,0,26.21,11.8,26.21,26.21Z"/>
    <path d="M203.57,413.27c0,14.41-11.8,26.21-26.21,26.21h-78.64c-14.41,0-26.21-11.8-26.21-26.21s11.8-26.21,26.21-26.21h78.64c14.41,0,26.21,11.8,26.21,26.21Z"/>
  </symbol>

  <symbol id="arrowDown" viewBox="0 0 512 512">
    <path d="M407.84,240.36c-.48.52-.99,1.01-1.52,1.5l-76,74.67c-5.28,5.28-13.38,12.67-21.99,20.3-14.45,12.84-33.14,19.93-52.48,19.92-19.33.02-37.99-7.04-52.45-19.85-8.64-7.68-16.82-15.15-22.17-20.52l-75.84-74.54c-9.99-10.63-9.47-27.33,1.16-37.32,10.02-9.42,25.6-9.55,35.8-.32l76.02,74.67c4.96,4.94,12.35,11.64,20.03,18.47,9.97,8.81,24.95,8.81,34.92,0,7.66-6.81,15.05-13.51,19.86-18.29l76.17-74.86c9.99-10.63,26.69-11.15,37.32-1.16,10.63,9.97,11.15,26.68,1.16,37.31Z"/>
  </symbol>

  <symbol id="shipping" viewBox="0 0 24 24">
    <path d="m19,5h-2.077c-.336-1.903-1.753-3.474-3.674-3.968-.529-.137-1.079.185-1.218.719-.138.535.185,1.08.72,1.217,1.324.341,2.249,1.536,2.249,2.906v11.126H4c-1.103,0-2-.897-2-2v-4h2.5c.553,0,1-.448,1-1s-.447-1-1-1h-2.5c-1.103,0-2,.897-2,2v4c0,1.88,1.304,3.461,3.055,3.887-.036.201-.055.406-.055.613,0,1.93,1.57,3.5,3.5,3.5s3.5-1.57,3.5-3.5c0-.169-.013-.335-.037-.5h4.074c-.024.165-.037.331-.037.5,0,1.93,1.57,3.5,3.5,3.5s3.5-1.57,3.5-3.5c0-.207-.019-.412-.055-.613,1.751-.426,3.055-2.007,3.055-3.887v-5c0-2.757-2.243-5-5-5Zm3,5v1h-5v-4h2c1.654,0,3,1.346,3,3Zm-14,9.5c0,.827-.673,1.5-1.5,1.5s-1.5-.673-1.5-1.5c0-.189.037-.356.091-.5h2.819c.054.144.091.311.091.5Zm9.5,1.5c-.827,0-1.5-.673-1.5-1.5,0-.189.037-.356.091-.5h2.819c.054.144.091.311.091.5,0,.827-.673,1.5-1.5,1.5Zm2.5-4h-3v-4h5v2c0,1.103-.897,2-2,2ZM0,2c0-.552.447-1,1-1h8.154c.553,0,1,.448,1,1s-.447,1-1,1H1c-.553,0-1-.448-1-1Zm0,4c0-.552.447-1,1-1h6.154c.553,0,1,.448,1,1s-.447,1-1,1H1c-.553,0-1-.448-1-1Z"/>
  </symbol>

</svg>