<svg aria-hidden="true" style="position:absolute;width:0;height:0" xmlns="http://www.w3.org/2000/svg" overflow="hidden">

  <symbol id="email" viewBox="0 0 512 512">
    <path d="M256,0C114.68.15.15,114.68,0,256c-2.69,204.22,238.06,329.15,403.2,209.43,9.81-6.53,12.47-19.77,5.95-29.58-6.53-9.81-19.77-12.47-29.58-5.95-.32.21-.64.44-.94.67-137.56,99.69-338.09-4.37-335.96-174.57,11.71-283.01,415-282.94,426.67,0v42.67c0,23.56-19.1,42.67-42.67,42.67s-42.67-19.1-42.67-42.67v-42.67c-5.38-169.15-250.65-169.13-256,0,.68,70.89,58.7,127.81,129.59,127.13,36.3-.35,70.76-16.05,94.84-43.22,23.23,41,75.31,55.41,116.31,32.18,26.48-15,42.97-42.98,43.26-73.41v-42.67C511.85,114.68,397.32.15,256,0ZM256,341.33c-47.13,0-85.33-38.21-85.33-85.33s38.21-85.33,85.33-85.33,85.33,38.21,85.33,85.33-38.21,85.33-85.33,85.33Z"/>
  </symbol>

  <symbol id="user" viewBox="0 0 512 512">
    <path d="M256,256c70.69,0,128-57.31,128-128S326.69,0,256,0s-128,57.31-128,128c.07,70.66,57.34,127.93,128,128ZM256,42.67c47.13,0,85.33,38.21,85.33,85.33s-38.21,85.33-85.33,85.33-85.33-38.21-85.33-85.33,38.21-85.33,85.33-85.33Z"/>
    <path d="M256,298.67c-105.99.12-191.88,86.01-192,192,0,11.78,9.55,21.33,21.33,21.33s21.33-9.55,21.33-21.33c0-82.47,66.86-149.33,149.33-149.33s149.33,66.86,149.33,149.33c0,11.78,9.55,21.33,21.33,21.33s21.33-9.55,21.33-21.33c-.12-105.99-86.01-191.88-192-192h.02Z"/>
  </symbol>

  <symbol id="poll" viewBox="0 0 512 512">
    <path d="M360.84,203.57c0,14.41-11.8,26.21-26.21,26.21H98.73c-14.41,0-26.21-11.8-26.21-26.21s11.8-26.21,26.21-26.21h235.91c14.41,0,26.21,11.8,26.21,26.21Z"/>
    <path d="M282.21,98.73c0,14.41-11.8,26.21-26.21,26.21H98.73c-14.41,0-26.21-11.8-26.21-26.21s11.8-26.21,26.21-26.21h157.27c14.41,0,26.21,11.8,26.21,26.21Z"/>
    <path d="M439.48,308.43c0,14.41-11.8,26.21-26.21,26.21H98.73c-14.41,0-26.21-11.8-26.21-26.21s11.8-26.21,26.21-26.21h314.54c14.41,0,26.21,11.8,26.21,26.21Z"/>
    <path d="M203.57,413.27c0,14.41-11.8,26.21-26.21,26.21h-78.64c-14.41,0-26.21-11.8-26.21-26.21s11.8-26.21,26.21-26.21h78.64c14.41,0,26.21,11.8,26.21,26.21Z"/>
  </symbol>

  <symbol id="arrowRight" viewBox="0 0 800 800">
    <path d="M400,733.3c-111.5,0-215.1-55.4-277.2-148.1-10.2-15.3-6.1-36,9.2-46.2,15.3-10.2,36-6.1,46.2,9.2,49.7,74.2,132.6,118.5,221.8,118.5,147,0,266.7-119.6,266.7-266.7s-119.6-266.7-266.7-266.7-172.1,44.3-221.8,118.5c-10.2,15.3-30.9,19.4-46.2,9.2-15.3-10.2-19.4-30.9-9.2-46.2,62.1-92.8,165.7-148.1,277.2-148.1s88.6,8.8,129.8,26.2c39.7,16.8,75.3,40.8,105.9,71.4,30.6,30.6,54.6,66.2,71.4,105.9,17.4,41.1,26.2,84.8,26.2,129.8s-8.8,88.6-26.2,129.8c-16.8,39.7-40.8,75.3-71.4,105.9-30.6,30.6-66.2,54.6-105.9,71.4-41.1,17.4-84.8,26.2-129.8,26.2ZM366.7,566.7c-8.5,0-17.1-3.3-23.6-9.8-13-13-13-34.1,0-47.1l76.4-76.4H100c-18.4,0-33.3-14.9-33.3-33.3s14.9-33.3,33.3-33.3h319.5l-76.4-76.4c-13-13-13-34.1,0-47.1,13-13,34.1-13,47.1,0l133.3,133.3c3.5,3.5,6,7.5,7.6,11.8,1.1,2.9,1.8,6.1,2,9.3,0,0,0,0,0,0,0,0,0,0,0,0,0,.8,0,1.6,0,2.3s0,1.6,0,2.3h0c0,0,0,0,0,0-.2,3.3-.9,6.4-2,9.3-1.6,4.3-4.2,8.3-7.6,11.8l-133.3,133.3c-6.5,6.5-15,9.8-23.6,9.8Z"/>
  </symbol>

  <symbol id="lock" viewBox="0 0 800 800">
    <path d="M506.7,733.3h-213.3c-59.3,0-92,0-120.5-14.5-25.3-12.9-45.4-33-58.3-58.3-14.5-28.5-14.5-61.2-14.5-120.5v-46.7c0-59.3,0-92,14.5-120.5,12.9-25.3,33-45.4,58.3-58.3,8.2-4.2,17-7.3,27.2-9.5v-38.3c0-110.3,89.7-200,200-200s200,89.7,200,200v38.4c10.2,2.2,19,5.3,27.2,9.5,25.3,12.9,45.4,33,58.3,58.3,14.5,28.5,14.5,61.2,14.5,120.5v46.7c0,59.3,0,92-14.5,120.5-12.9,25.3-33,45.4-58.3,58.3-28.5,14.5-61.2,14.5-120.5,14.5ZM235.1,367.6c-15.6,1-25.2,2.9-32,6.4-12.6,6.4-22.7,16.5-29.1,29.1-7.3,14.3-7.3,41.3-7.3,90.3v46.7c0,49,0,76,7.3,90.3,6.4,12.6,16.5,22.7,29.1,29.1,14.3,7.3,41.3,7.3,90.3,7.3h213.3c49,0,76,0,90.3-7.3,12.6-6.4,22.7-16.5,29.1-29.1,7.3-14.3,7.3-41.3,7.3-90.3v-46.7c0-49,0-76-7.3-90.3-6.4-12.6-16.5-22.7-29.1-29.1-6.8-3.5-16.4-5.4-32-6.4-.2,0-.4,0-.6,0-14.7-.9-33.7-.9-57.7-.9h-213.3c-24,0-43,0-57.7.9-.2,0-.4,0-.6,0ZM293.3,300h213.3c9.6,0,18.5,0,26.7,0v-33.4c0-73.5-59.8-133.3-133.3-133.3s-133.3,59.8-133.3,133.3v33.4c8.2,0,17,0,26.7,0ZM400,583.3c-18.4,0-33.3-14.9-33.3-33.3v-66.7c0-18.4,14.9-33.3,33.3-33.3s33.3,14.9,33.3,33.3v66.7c0,18.4-14.9,33.3-33.3,33.3Z"/>
  </symbol>

  <symbol id="shipping" viewBox="0 0 24 24">
    <path d="m19,5h-2.077c-.336-1.903-1.753-3.474-3.674-3.968-.529-.137-1.079.185-1.218.719-.138.535.185,1.08.72,1.217,1.324.341,2.249,1.536,2.249,2.906v11.126H4c-1.103,0-2-.897-2-2v-4h2.5c.553,0,1-.448,1-1s-.447-1-1-1h-2.5c-1.103,0-2,.897-2,2v4c0,1.88,1.304,3.461,3.055,3.887-.036.201-.055.406-.055.613,0,1.93,1.57,3.5,3.5,3.5s3.5-1.57,3.5-3.5c0-.169-.013-.335-.037-.5h4.074c-.024.165-.037.331-.037.5,0,1.93,1.57,3.5,3.5,3.5s3.5-1.57,3.5-3.5c0-.207-.019-.412-.055-.613,1.751-.426,3.055-2.007,3.055-3.887v-5c0-2.757-2.243-5-5-5Zm3,5v1h-5v-4h2c1.654,0,3,1.346,3,3Zm-14,9.5c0,.827-.673,1.5-1.5,1.5s-1.5-.673-1.5-1.5c0-.189.037-.356.091-.5h2.819c.054.144.091.311.091.5Zm9.5,1.5c-.827,0-1.5-.673-1.5-1.5,0-.189.037-.356.091-.5h2.819c.054.144.091.311.091.5,0,.827-.673,1.5-1.5,1.5Zm2.5-4h-3v-4h5v2c0,1.103-.897,2-2,2ZM0,2c0-.552.447-1,1-1h8.154c.553,0,1,.448,1,1s-.447,1-1,1H1c-.553,0-1-.448-1-1Zm0,4c0-.552.447-1,1-1h6.154c.553,0,1,.448,1,1s-.447,1-1,1H1c-.553,0-1-.448-1-1Z"/>
  </symbol>

  <symbol id="cart" viewBox="0 0 800 800">
    <path d="M33.33,33.33C14.92,33.33,0,48.26,0,66.67s14.92,33.33,33.33,33.33h73.55l92.62,396.96c13.79,59.09,65.65,101.25,125.98,102.98v.06h260.76c64.96,0,120.47-46.81,131.42-110.84l41.85-244.58c6.97-40.72-24.4-77.91-65.71-77.91H190.9l-25.1-107.57c-3.52-15.09-16.97-25.76-32.46-25.76H33.33ZM206.45,233.33l57.98,248.48c7.04,30.17,33.94,51.52,64.92,51.52h256.89c32.48,0,60.23-23.41,65.71-55.42l41.85-244.58H206.45Z" fill-rule="evenodd"/>
    <path d="M266.67,766.67c36.82,0,66.67-29.85,66.67-66.67s-29.85-66.67-66.67-66.67-66.67,29.85-66.67,66.67,29.85,66.67,66.67,66.67Z"/>
    <path d="M633.33,766.67c36.82,0,66.67-29.85,66.67-66.67s-29.85-66.67-66.67-66.67-66.67,29.85-66.67,66.67,29.85,66.67,66.67,66.67Z"/>
  </symbol>

  <symbol id="insta" viewBox="0 0 50 50">
    <path d="M35.77,50H14.23c-7.85,0-14.23-6.38-14.23-14.23V14.23C0,6.38,6.38,0,14.23,0h21.54c7.85,0,14.23,6.38,14.23,14.23v21.54c0,7.85-6.38,14.23-14.23,14.23ZM14.23,4.29c-5.48,0-9.95,4.46-9.95,9.94v21.54c0,5.48,4.46,9.94,9.95,9.94h21.54c5.48,0,9.95-4.46,9.95-9.94V14.23c0-5.48-4.46-9.94-9.95-9.94H14.23Z"/>
    <path d="M25,37.8c-7.06,0-12.8-5.74-12.8-12.8s5.74-12.8,12.8-12.8,12.8,5.74,12.8,12.8-5.74,12.8-12.8,12.8ZM25,16.48c-4.7,0-8.52,3.82-8.52,8.52s3.82,8.52,8.52,8.52,8.52-3.82,8.52-8.52-3.82-8.52-8.52-8.52Z"/>
    <path d="M41.43,11.47c0,1.7-1.38,3.08-3.08,3.08s-3.08-1.38-3.08-3.08,1.38-3.08,3.08-3.08,3.08,1.38,3.08,3.08Z"/>
  </symbol>
  
</svg>